<svg id="visual" viewBox="0 0 960 540" width="960" height="540" xmlns="http://www.w3.org/2000/svg" xmlns:xlink="http://www.w3.org/1999/xlink" version="1.1"><rect x="0" y="0" width="960" height="540" fill="#ffffff"></rect><defs><linearGradient id="grad1_0" x1="43.8%" y1="0%" x2="100%" y2="100%"><stop offset="14.444444444444446%" stop-color="#ffffff" stop-opacity="1"></stop><stop offset="85.55555555555554%" stop-color="#ffffff" stop-opacity="1"></stop></linearGradient></defs><defs><linearGradient id="grad2_0" x1="0%" y1="0%" x2="56.3%" y2="100%"><stop offset="14.444444444444446%" stop-color="#ffffff" stop-opacity="1"></stop><stop offset="85.55555555555554%" stop-color="#ffffff" stop-opacity="1"></stop></linearGradient></defs><g transform="translate(960, 0)"><path d="M0 162C-28.2 157.7 -56.4 153.4 -81 140.3C-105.6 127.2 -126.5 105.3 -139.4 80.5C-152.3 55.7 -157.2 27.8 -162 0L0 0Z" fill="#25C196"></path></g><g transform="translate(0, 540)"><path d="M0 -162C25.4 -153 50.9 -144 76 -131.6C101.1 -119.3 126 -103.5 140.3 -81C154.6 -58.5 158.3 -29.2 162 0L0 0Z" fill="#25C196"></path></g></svg>