<svg id="visual" viewBox="0 0 900 200" width="900" height="200" xmlns="http://www.w3.org/2000/svg" xmlns:xlink="http://www.w3.org/1999/xlink" version="1.1"><path d="M0 79L82 49L164 93L245 33L327 79L409 67L491 79L573 81L655 57L736 59L818 65L900 33L900 0L818 0L736 0L655 0L573 0L491 0L409 0L327 0L245 0L164 0L82 0L0 0Z" fill="#ffffff"></path><path d="M0 121L82 103L164 131L245 109L327 107L409 103L491 117L573 129L655 97L736 103L818 117L900 111L900 31L818 63L736 57L655 55L573 79L491 77L409 65L327 77L245 31L164 91L82 47L0 77Z" fill="#f6fffe"></path><path d="M0 147L82 127L164 163L245 137L327 121L409 143L491 137L573 145L655 133L736 133L818 135L900 135L900 109L818 115L736 101L655 95L573 127L491 115L409 101L327 105L245 107L164 129L82 101L0 119Z" fill="#ecfffd"></path><path d="M0 183L82 173L164 181L245 181L327 169L409 175L491 179L573 169L655 167L736 179L818 181L900 175L900 133L818 133L736 131L655 131L573 143L491 135L409 141L327 119L245 135L164 161L82 125L0 145Z" fill="#e3fffc"></path><path d="M0 201L82 201L164 201L245 201L327 201L409 201L491 201L573 201L655 201L736 201L818 201L900 201L900 173L818 179L736 177L655 165L573 167L491 177L409 173L327 167L245 179L164 179L82 171L0 181Z" fill="#d9fffb"></path></svg>